<mxfile host="65bd71144e">
    <diagram name="Page-1" id="c4acf3e9-155e-7222-9cf6-157b1a14988f">
        <mxGraphModel dx="1434" dy="779" grid="1" gridSize="10" guides="1" tooltips="1" connect="1" arrows="1" fold="1" page="1" pageScale="1" pageWidth="850" pageHeight="1100" background="none" math="0" shadow="0">
            <root>
                <mxCell id="0"/>
                <mxCell id="1" parent="0"/>
                <mxCell id="JE1zBtL-nL1WQ-DZyDe0-11" value="User" style="swimlane;fontStyle=1;align=center;verticalAlign=top;childLayout=stackLayout;horizontal=1;startSize=26;horizontalStack=0;resizeParent=1;resizeParentMax=0;resizeLast=0;collapsible=1;marginBottom=0;whiteSpace=wrap;html=1;" parent="1" vertex="1">
                    <mxGeometry x="345" y="210" width="285" height="164" as="geometry"/>
                </mxCell>
                <mxCell id="JE1zBtL-nL1WQ-DZyDe0-2" value="- UserId: Int" style="text;strokeColor=none;fillColor=none;align=left;verticalAlign=top;spacingLeft=4;spacingRight=4;overflow=hidden;rotatable=0;points=[[0,0.5],[1,0.5]];portConstraint=eastwest;whiteSpace=wrap;html=1;" parent="JE1zBtL-nL1WQ-DZyDe0-11" vertex="1">
                    <mxGeometry y="26" width="285" height="26" as="geometry"/>
                </mxCell>
                <mxCell id="2" value="- Username: String" style="text;strokeColor=none;fillColor=none;align=left;verticalAlign=top;spacingLeft=4;spacingRight=4;overflow=hidden;rotatable=0;points=[[0,0.5],[1,0.5]];portConstraint=eastwest;whiteSpace=wrap;html=1;" parent="JE1zBtL-nL1WQ-DZyDe0-11" vertex="1">
                    <mxGeometry y="52" width="285" height="26" as="geometry"/>
                </mxCell>
                <mxCell id="JE1zBtL-nL1WQ-DZyDe0-3" value="- Password: String" style="text;strokeColor=none;fillColor=none;align=left;verticalAlign=top;spacingLeft=4;spacingRight=4;overflow=hidden;rotatable=0;points=[[0,0.5],[1,0.5]];portConstraint=eastwest;whiteSpace=wrap;html=1;" parent="JE1zBtL-nL1WQ-DZyDe0-11" vertex="1">
                    <mxGeometry y="78" width="285" height="26" as="geometry"/>
                </mxCell>
                <mxCell id="JE1zBtL-nL1WQ-DZyDe0-16" value="- Cash: Float" style="text;strokeColor=none;fillColor=none;align=left;verticalAlign=top;spacingLeft=4;spacingRight=4;overflow=hidden;rotatable=0;points=[[0,0.5],[1,0.5]];portConstraint=eastwest;whiteSpace=wrap;html=1;" parent="JE1zBtL-nL1WQ-DZyDe0-11" vertex="1">
                    <mxGeometry y="104" width="285" height="26" as="geometry"/>
                </mxCell>
                <mxCell id="JE1zBtL-nL1WQ-DZyDe0-10" value="- ParticipatedAuctions: List&amp;lt;Auction&amp;gt;" style="text;strokeColor=none;fillColor=none;align=left;verticalAlign=top;spacingLeft=4;spacingRight=4;overflow=hidden;rotatable=0;points=[[0,0.5],[1,0.5]];portConstraint=eastwest;whiteSpace=wrap;html=1;" parent="JE1zBtL-nL1WQ-DZyDe0-11" vertex="1">
                    <mxGeometry y="130" width="285" height="26" as="geometry"/>
                </mxCell>
                <mxCell id="JE1zBtL-nL1WQ-DZyDe0-13" value="" style="line;strokeWidth=1;fillColor=none;align=left;verticalAlign=middle;spacingTop=-1;spacingLeft=3;spacingRight=3;rotatable=0;labelPosition=right;points=[];portConstraint=eastwest;strokeColor=inherit;" parent="JE1zBtL-nL1WQ-DZyDe0-11" vertex="1">
                    <mxGeometry y="156" width="285" height="8" as="geometry"/>
                </mxCell>
                <mxCell id="JE1zBtL-nL1WQ-DZyDe0-18" value="&lt;span style=&quot;white-space: nowrap;&quot;&gt;UserService&lt;/span&gt;" style="swimlane;fontStyle=1;align=center;verticalAlign=top;childLayout=stackLayout;horizontal=1;startSize=26;horizontalStack=0;resizeParent=1;resizeParentMax=0;resizeLast=0;collapsible=1;marginBottom=0;whiteSpace=wrap;html=1;" parent="1" vertex="1">
                    <mxGeometry x="40" y="300" width="220" height="86" as="geometry"/>
                </mxCell>
                <mxCell id="JE1zBtL-nL1WQ-DZyDe0-20" value="" style="line;strokeWidth=1;fillColor=none;align=left;verticalAlign=middle;spacingTop=-1;spacingLeft=3;spacingRight=3;rotatable=0;labelPosition=right;points=[];portConstraint=eastwest;strokeColor=inherit;" parent="JE1zBtL-nL1WQ-DZyDe0-18" vertex="1">
                    <mxGeometry y="26" width="220" height="8" as="geometry"/>
                </mxCell>
                <mxCell id="JE1zBtL-nL1WQ-DZyDe0-21" value="&lt;span style=&quot;white-space: nowrap;&quot;&gt;+ PutUser(id: int, user: User): User&lt;/span&gt;" style="text;strokeColor=none;fillColor=none;align=left;verticalAlign=top;spacingLeft=4;spacingRight=4;overflow=hidden;rotatable=0;points=[[0,0.5],[1,0.5]];portConstraint=eastwest;whiteSpace=wrap;html=1;" parent="JE1zBtL-nL1WQ-DZyDe0-18" vertex="1">
                    <mxGeometry y="34" width="220" height="26" as="geometry"/>
                </mxCell>
                <mxCell id="JE1zBtL-nL1WQ-DZyDe0-22" value="&lt;span style=&quot;white-space: nowrap;&quot;&gt;- UserExists(id: int): Boolean&lt;/span&gt;" style="text;strokeColor=none;fillColor=none;align=left;verticalAlign=top;spacingLeft=4;spacingRight=4;overflow=hidden;rotatable=0;points=[[0,0.5],[1,0.5]];portConstraint=eastwest;whiteSpace=wrap;html=1;" parent="JE1zBtL-nL1WQ-DZyDe0-18" vertex="1">
                    <mxGeometry y="60" width="220" height="26" as="geometry"/>
                </mxCell>
                <mxCell id="3" value="Die Klasse User hat eine einzige Verantwortlichkeit: die Verwaltung der Benutzerdaten. Sie kümmert sich ausschließlich um das Speichern und Abrufen von Benutzereigenschaften wie Benutzername, Passwort, Kontostand und Listen von gekauften, erstellten und beobachteten Auktionen. Die User-Klasse stellt Methoden bereit, um diese Attribute zu aktualisieren, beispielsweise für das Hinzufügen oder Entfernen von Auktionen in den jeweiligen Listen sowie das Verwalten des Guthabens. Dadurch wird sichergestellt, dass die Klasse leicht zu warten und zu testen ist, da jede Änderung an den Benutzerdaten nur die User-Klasse betrifft und keine anderen Teile des Systems beeinflusst. Diese klare Trennung der Verantwortlichkeiten vereinfacht die Verwaltung der Benutzerinformationen und fördert eine übersichtliche Struktur." style="text;align=center;verticalAlign=middle;whiteSpace=wrap;rounded=0;" parent="1" vertex="1">
                    <mxGeometry x="216" y="690" width="419" height="140" as="geometry"/>
                </mxCell>
                <mxCell id="4" value="Single Responsibility Principle (SRP)" style="text;align=center;verticalAlign=middle;whiteSpace=wrap;rounded=0;" parent="1" vertex="1">
                    <mxGeometry x="290.5" y="640" width="270" height="30" as="geometry"/>
                </mxCell>
            </root>
        </mxGraphModel>
    </diagram>
</mxfile>